<svg xmlns="http://www.w3.org/2000/svg" xmlns:xlink="http://www.w3.org/1999/xlink" width="400" height="400" viewBox="0 0 400 400">
  <defs>
    <clipPath id="clip-path">
      <rect id="Rectangle_14" data-name="Rectangle 14" width="400" height="400" transform="translate(3470 4565)" fill="#fff" stroke="#707070" stroke-width="1"/>
    </clipPath>
  </defs>
  <g id="Mask_Group_1" data-name="Mask Group 1" transform="translate(-3470 -4565)" clip-path="url(#clip-path)">
    <g id="Group_31" data-name="Group 31" transform="translate(3227.421 2902.25)">
      <g id="Group_12" data-name="Group 12" transform="translate(257.425 1884.694)">
        <path id="Path_31" data-name="Path 31" d="M280.855,1921.841a5.57,5.57,0,0,1-5.43-5.43V1901.93a5.568,5.568,0,0,1,5.43-5.43h7.24a5.565,5.565,0,0,1,5.43,5.43,1.81,1.81,0,1,1-3.62,0,1.855,1.855,0,0,0-1.81-1.81h-7.24a1.855,1.855,0,0,0-1.81,1.81v14.481a1.855,1.855,0,0,0,1.81,1.81h7.24a1.854,1.854,0,0,0,1.81-1.81,1.81,1.81,0,1,1,3.62,0,5.568,5.568,0,0,1-5.43,5.43Z" transform="translate(-275.425 -1896.411)"/>
        <path id="Path_32" data-name="Path 32" d="M302.576,1918.221a5.571,5.571,0,0,1-5.43-5.43v-7.24a1.81,1.81,0,1,1,3.62,0v7.24a1.855,1.855,0,0,0,1.81,1.81h9.05v-9.05a1.81,1.81,0,1,1,3.621,0v14.48a5.568,5.568,0,0,1-5.431,5.43h-7.24a1.81,1.81,0,1,1,0-3.62h7.24a1.854,1.854,0,0,0,1.81-1.81v-1.81Z" transform="translate(-275.425 -1896.411)"/>
        <path id="Path_33" data-name="Path 33" d="M320.677,1921.841a1.854,1.854,0,0,1-1.81-1.81v-21.72a1.81,1.81,0,0,1,3.62,0v5.43h9.05a5.564,5.564,0,0,1,5.43,5.43v7.24a5.568,5.568,0,0,1-5.43,5.43Zm10.86-14.481h-9.05v10.861h9.05a1.855,1.855,0,0,0,1.81-1.81v-7.24A1.855,1.855,0,0,0,331.537,1907.36Z" transform="translate(-275.425 -1896.411)"/>
        <path id="Path_34" data-name="Path 34" d="M346.017,1921.841a5.571,5.571,0,0,1-5.43-5.43v-7.24a5.568,5.568,0,0,1,5.43-5.43h7.24a5.563,5.563,0,0,1,5.43,5.43v3.621a1.855,1.855,0,0,1-1.81,1.81H344.207v1.81a1.855,1.855,0,0,0,1.81,1.81h7.24a1.81,1.81,0,1,1,0,3.62Zm-1.81-10.86h10.86v-1.81a1.855,1.855,0,0,0-1.81-1.811h-7.24a1.854,1.854,0,0,0-1.81,1.81Z" transform="translate(-281.03 -1896.411)"/>
        <path id="Path_35" data-name="Path 35" d="M369.549,1907.36v12.671a1.81,1.81,0,1,1-3.621,0v-14.48a1.854,1.854,0,0,1,1.81-1.81h7.24a5.564,5.564,0,0,1,5.43,5.43,1.81,1.81,0,1,1-3.621,0,1.855,1.855,0,0,0-1.81-1.81Z" transform="translate(-283.136 -1896.411)"/>
        <path id="Path_36" data-name="Path 36" d="M411.18,1910.98a5.009,5.009,0,0,1-5.43-5.43v-3.62a5.548,5.548,0,0,1,1.448-3.8,5.061,5.061,0,0,1,3.983-1.628h7.24a5.565,5.565,0,0,1,5.431,5.43,1.81,1.81,0,1,1-3.621,0,1.855,1.855,0,0,0-1.81-1.81h-7.24a1.854,1.854,0,0,0-1.81,1.81v3.62a1.854,1.854,0,0,0,1.81,1.81h7.24a5.564,5.564,0,0,1,5.431,5.431v3.62a5.055,5.055,0,0,1-1.628,3.983,5.548,5.548,0,0,1-3.8,1.448h-7.24a5.57,5.57,0,0,1-5.43-5.43,1.81,1.81,0,1,1,3.62,0,1.855,1.855,0,0,0,1.81,1.81h7.24a1.855,1.855,0,0,0,1.81-1.81v-3.62a1.854,1.854,0,0,0-1.81-1.81Z" transform="translate(-286.634 -1896.411)"/>
        <path id="Path_37" data-name="Path 37" d="M432.9,1921.841a5.57,5.57,0,0,1-5.43-5.43v-7.24a5.568,5.568,0,0,1,5.43-5.43h7.24a5.564,5.564,0,0,1,5.43,5.43v3.62a1.855,1.855,0,0,1-1.81,1.81h-12.67v1.81a1.855,1.855,0,0,0,1.81,1.81h7.24a1.81,1.81,0,1,1,0,3.62Zm-1.81-10.86h10.861v-1.81a1.855,1.855,0,0,0-1.81-1.811H432.9a1.854,1.854,0,0,0-1.81,1.81Z" transform="translate(-288.502 -1896.411)"/>
        <path id="Path_38" data-name="Path 38" d="M454.621,1921.841a5.571,5.571,0,0,1-5.43-5.43v-7.24a5.568,5.568,0,0,1,5.43-5.43h7.24a5.563,5.563,0,0,1,5.43,5.43,1.81,1.81,0,1,1-3.62,0,1.855,1.855,0,0,0-1.81-1.81h-7.24a1.854,1.854,0,0,0-1.81,1.81v7.24a1.855,1.855,0,0,0,1.81,1.81h7.24a1.854,1.854,0,0,0,1.81-1.81,1.81,1.81,0,0,1,3.62,0,5.568,5.568,0,0,1-5.43,5.43Z" transform="translate(-290.37 -1896.411)"/>
        <path id="Path_39" data-name="Path 39" d="M485.393,1918.221v-12.67a1.81,1.81,0,1,1,3.621,0v14.48a1.854,1.854,0,0,1-1.81,1.81h-10.86a5.57,5.57,0,0,1-5.43-5.43v-10.86a1.81,1.81,0,0,1,3.62,0v10.86a1.855,1.855,0,0,0,1.81,1.81Z" transform="translate(-292.239 -1896.411)"/>
        <path id="Path_40" data-name="Path 40" d="M499.873,1907.36v12.671a1.81,1.81,0,1,1-3.62,0v-14.48a1.854,1.854,0,0,1,1.81-1.81h7.24a5.564,5.564,0,0,1,5.43,5.43,1.81,1.81,0,1,1-3.62,0,1.855,1.855,0,0,0-1.81-1.811Z" transform="translate(-294.24 -1896.411)"/>
        <path id="Path_41" data-name="Path 41" d="M521.594,1907.36h-1.81a1.81,1.81,0,1,1,0-3.62h3.62a1.854,1.854,0,0,1,1.81,1.81v12.671h1.81a1.81,1.81,0,1,1,0,3.62h-7.24a1.81,1.81,0,1,1,0-3.62h1.81Zm1.81-7.24a1.855,1.855,0,1,1,1.267-.543,1.745,1.745,0,0,1-1.267.543Z" transform="translate(-295.898 -1896.411)"/>
        <path id="Path_42" data-name="Path 42" d="M533.957,1907.36a1.81,1.81,0,1,1,0-3.62h1.81v-5.43a1.81,1.81,0,0,1,3.62,0v5.43h5.43a1.81,1.81,0,1,1,0,3.62h-5.43v9.051a1.855,1.855,0,0,0,1.81,1.81h3.62a1.81,1.81,0,1,1,0,3.62H541.2a5.57,5.57,0,0,1-5.43-5.43v-9.051Z" transform="translate(-297.298 -1896.411)"/>
        <path id="Path_43" data-name="Path 43" d="M555.678,1918.221a5.571,5.571,0,0,1-5.43-5.43v-7.24a1.81,1.81,0,1,1,3.621,0v7.24a1.855,1.855,0,0,0,1.81,1.81h9.051v-9.05a1.81,1.81,0,1,1,3.62,0v14.48a5.568,5.568,0,0,1-5.43,5.43h-7.24a1.81,1.81,0,1,1,0-3.62h7.24a1.854,1.854,0,0,0,1.81-1.81v-1.81Z" transform="translate(-299.062 -1896.411)"/>
        <path id="Path_44" data-name="Path 44" d="M597.592,1921.841a5.57,5.57,0,0,1-5.43-5.43V1901.93a5.568,5.568,0,0,1,5.43-5.43h7.24a5.564,5.564,0,0,1,5.43,5.43,1.81,1.81,0,1,1-3.621,0,1.854,1.854,0,0,0-1.81-1.81h-7.24a1.854,1.854,0,0,0-1.81,1.81v14.481a1.855,1.855,0,0,0,1.81,1.81h7.24a1.854,1.854,0,0,0,1.81-1.81,1.81,1.81,0,1,1,3.621,0,5.568,5.568,0,0,1-5.43,5.43Z" transform="translate(-302.667 -1896.411)"/>
        <path id="Path_45" data-name="Path 45" d="M619.313,1921.841a1.81,1.81,0,1,1,0-3.62h1.81v-18.1h-1.81a1.81,1.81,0,1,1,0-3.621h3.62a1.854,1.854,0,0,1,1.81,1.81v19.911h1.81a1.81,1.81,0,1,1,0,3.62Z" transform="translate(-308.272 -1896.411)"/>
        <path id="Path_46" data-name="Path 46" d="M650.084,1918.221v-12.67a1.81,1.81,0,1,1,3.621,0v14.48a1.855,1.855,0,0,1-1.81,1.81h-10.86a5.57,5.57,0,0,1-5.43-5.43v-10.86a1.81,1.81,0,0,1,3.62,0v10.86a1.855,1.855,0,0,0,1.81,1.81Z" transform="translate(-308.272 -1896.411)"/>
        <path id="Path_47" data-name="Path 47" d="M659.135,1921.841a1.854,1.854,0,0,1-1.81-1.81v-21.72a1.81,1.81,0,0,1,3.62,0v5.43h9.051a5.564,5.564,0,0,1,5.43,5.43v7.24a5.568,5.568,0,0,1-5.43,5.43Zm10.86-14.481h-9.051v10.861h9.051a1.855,1.855,0,0,0,1.81-1.81v-7.24A1.855,1.855,0,0,0,669.995,1907.36Z" transform="translate(-308.272 -1896.411)"/>
      </g>
      <g id="Group_13" data-name="Group 13" transform="translate(262.098 1799.04)">
        <path id="Path_48" data-name="Path 48" d="M335.238,1870.706H324.164v-49.2L311.836,1840.8h-8.45l-12.216-19.179v49.2H280.1v-70.551H290.83l16.781,26.6,16.9-26.6h10.732Z" transform="translate(-280.098 -1800.04)" fill="#781a42"/>
        <path id="Path_49" data-name="Path 49" d="M379.532,1871.162h-1.254c-13.015,0-22.717-10.959-22.717-24.544V1824.47c0-13.471,9.7-24.431,22.717-24.431h1.255c13.015,0,22.719,10.959,22.719,24.431v22.148C402.251,1860.2,392.546,1871.162,379.532,1871.162Zm11.645-46.692c0-8.221-5.594-13.356-11.645-13.356h-1.254c-6.051,0-11.645,5.137-11.645,13.356v22.148c0,8.334,5.594,13.471,11.645,13.471h1.255c6.051,0,11.645-5.137,11.645-13.471Z" transform="translate(-287.304 -1800.04)" fill="#781a42"/>
        <path id="Path_50" data-name="Path 50" d="M453.964,1870.819v-28.883H433.642v28.883H422.57v-70.437h11.073v30.482h20.321v-30.482h11.074v70.437Z" transform="translate(-293.538 -1800.04)" fill="#781a42"/>
        <path id="Path_51" data-name="Path 51" d="M523.944,1870.819l-5.823-18.494H498.83l-5.825,18.494H481.477l21.919-70.438h10.16l21.918,70.438Zm-15.412-49.432-6.279,19.864H514.7Z" transform="translate(-299.746 -1800.04)" fill="#781a42"/>
        <path id="Path_52" data-name="Path 52" d="M597.233,1870.819H586.388l-9.019-27.056-9.019,27.056H557.619l-9.7-70.438H559.1l6.164,44.865,6.964-20.891h10.389l6.964,20.891,6.166-44.865h11.187Z" transform="translate(-306.624 -1800.04)" fill="#781a42"/>
        <path id="Path_53" data-name="Path 53" d="M656.6,1870.819l-21.119-26.6v26.6H624.4v-70.437h11.074v24.659l18.951-24.659h13.927L642.1,1834.63l28.655,36.19Z" transform="translate(-312.945 -1800.04)" fill="#781a42"/>
      </g>
    </g>
  </g>
</svg>
